<svg width="41" height="42" viewBox="0 0 41 42" fill="none" xmlns="http://www.w3.org/2000/svg">
<path d="M36.8066 38.0947L34.9746 39.7958L36.6757 41.6278L38.5077 39.9267L36.8066 38.0947ZM22.3582 22.5348L20.6571 20.7029L18.8251 22.404L20.5262 24.236L22.3582 22.5348ZM36.9898 37.9246L38.6909 39.7566L40.5229 38.0554L38.8218 36.2234L36.9898 37.9246ZM22.5414 22.3647L24.3734 20.6636L22.6722 18.8316L20.8403 20.5328L22.5414 22.3647ZM23.2083 14.3541C23.2083 19.2441 19.2441 23.2083 14.3541 23.2083V28.2083C22.0056 28.2083 28.2083 22.0056 28.2083 14.3541H23.2083ZM14.3541 5.5C19.2441 5.5 23.2083 9.46413 23.2083 14.3541H28.2083C28.2083 6.7027 22.0056 0.5 14.3541 0.5V5.5ZM5.5 14.3541C5.5 9.46413 9.46413 5.5 14.3541 5.5V0.5C6.70271 0.5 0.5 6.70271 0.5 14.3541H5.5ZM14.3541 23.2083C9.46413 23.2083 5.5 19.2441 5.5 14.3541H0.5C0.5 22.0056 6.7027 28.2083 14.3541 28.2083V23.2083ZM38.6386 36.3935L24.1902 20.8337L20.5262 24.236L34.9746 39.7958L38.6386 36.3935ZM35.2887 36.0926L35.1055 36.2627L38.5077 39.9267L38.6909 39.7566L35.2887 36.0926ZM20.7094 24.0659L35.1578 39.6257L38.8218 36.2234L24.3734 20.6636L20.7094 24.0659ZM24.0593 24.3668L24.2425 24.1967L20.8403 20.5328L20.6571 20.7029L24.0593 24.3668Z" fill="#4C4545"/>
</svg>
